<svg width="512" height="512" viewBox="0 0 512 512" fill="none" xmlns="http://www.w3.org/2000/svg">
  <g clip-path="url(#clip0_2_12756)">
  <path d="M507 211.16C505.58 209.97 492.75 200.22 465.21 200.22C457.967 200.262 450.739 200.897 443.6 202.12C438.38 165.72 408.22 148.12 407.03 147.12L399.67 142.84L394.92 149.74C388.931 159.107 384.519 169.394 381.86 180.19C376.86 200.89 379.96 220.39 390.41 237.04C377.82 244.18 357.41 245.84 353.13 246.04H15.9399C13.8387 246.038 11.7579 246.453 9.81751 247.259C7.87709 248.065 6.11534 249.247 4.63373 250.737C3.15211 252.227 1.97991 253.996 1.18464 255.941C0.389363 257.886 -0.0132737 259.969 -8.27815e-05 262.07C-0.453043 291.673 4.54693 321.107 14.7499 348.9C26.3899 379.35 43.7199 402 65.9999 415.74C91.2199 431.2 132.3 440 178.6 440C199.547 440.001 220.45 438.089 241.05 434.29C269.768 429.082 297.392 419.029 322.74 404.56C343.607 392.436 362.373 377.013 378.31 358.89C405.14 328.68 421.05 294.89 432.69 264.89H437.44C466.65 264.89 484.7 253.23 494.67 243.24C501.288 236.968 506.472 229.341 509.87 220.88L512.01 214.7L507 211.16Z" fill="#2A26F8"/>
  <path d="M47.29 236.37H92.4C93.4609 236.37 94.4783 235.948 95.2285 235.198C95.9786 234.448 96.4 233.431 96.4 232.37V191.89C96.4 190.829 95.9786 189.811 95.2285 189.061C94.4783 188.311 93.4609 187.89 92.4 187.89H47.29C46.2292 187.89 45.2118 188.311 44.4616 189.061C43.7115 189.811 43.29 190.829 43.29 191.89V232.33C43.3296 233.378 43.7638 234.372 44.5055 235.114C45.2472 235.856 46.2418 236.29 47.29 236.33" fill="#2A26F8"/>
  <path d="M109.5 236.37H154.62C155.681 236.37 156.698 235.948 157.448 235.198C158.199 234.448 158.62 233.431 158.62 232.37V191.89C158.62 190.829 158.199 189.811 157.448 189.061C156.698 188.311 155.681 187.89 154.62 187.89H109.5C108.439 187.89 107.422 188.311 106.672 189.061C105.921 189.811 105.5 190.829 105.5 191.89V232.33C105.54 233.378 105.974 234.372 106.715 235.114C107.457 235.856 108.452 236.29 109.5 236.33" fill="#2A26F8"/>
  <path d="M172.9 236.37H218C219.061 236.37 220.078 235.948 220.828 235.198C221.578 234.448 222 233.431 222 232.37V191.89C222 190.829 221.578 189.811 220.828 189.061C220.078 188.311 219.061 187.89 218 187.89H172.9C171.839 187.89 170.821 188.311 170.071 189.061C169.321 189.811 168.9 190.829 168.9 191.89V232.33C168.882 232.86 168.973 233.388 169.167 233.882C169.362 234.375 169.656 234.823 170.031 235.198C170.406 235.574 170.854 235.868 171.348 236.062C171.841 236.257 172.37 236.348 172.9 236.33" fill="#2A26F8"/>
  <path d="M235.36 236.37H280.48C281.541 236.37 282.559 235.948 283.309 235.198C284.059 234.448 284.48 233.431 284.48 232.37V191.89C284.48 190.829 284.059 189.811 283.309 189.061C282.559 188.311 281.541 187.89 280.48 187.89H235.36C234.299 187.89 233.282 188.311 232.532 189.061C231.782 189.811 231.36 190.829 231.36 191.89V232.33C231.36 233.391 231.782 234.408 232.532 235.158C233.282 235.908 234.299 236.33 235.36 236.33" fill="#2A26F8"/>
  <path d="M109.5 178.57H154.62C155.668 178.53 156.663 178.096 157.405 177.354C158.146 176.613 158.58 175.618 158.62 174.57V134.09C158.62 133.029 158.199 132.012 157.448 131.261C156.698 130.511 155.681 130.09 154.62 130.09H109.5C108.439 130.09 107.422 130.511 106.672 131.261C105.921 132.012 105.5 133.029 105.5 134.09V174.53C105.578 175.565 106.025 176.537 106.759 177.271C107.493 178.005 108.465 178.452 109.5 178.53" fill="#2A26F8"/>
  <path d="M172.9 178.57H218C219.049 178.53 220.043 178.096 220.785 177.354C221.527 176.613 221.961 175.618 222 174.57V134.09C222 133.029 221.579 132.012 220.829 131.261C220.079 130.511 219.061 130.09 218 130.09H172.9C171.84 130.09 170.822 130.511 170.072 131.261C169.322 132.012 168.9 133.029 168.9 134.09V174.53C168.9 175.591 169.322 176.608 170.072 177.358C170.822 178.108 171.84 178.53 172.9 178.53" fill="#2A26F8"/>
  <path d="M235.36 178.57H280.48C281.529 178.53 282.523 178.096 283.265 177.354C284.007 176.613 284.441 175.618 284.48 174.57V134.09C284.441 133.042 284.007 132.047 283.265 131.305C282.523 130.564 281.529 130.129 280.48 130.09H235.36C234.299 130.09 233.282 130.511 232.532 131.261C231.782 132.012 231.36 133.029 231.36 134.09V174.53C231.4 175.578 231.834 176.573 232.576 177.314C233.318 178.056 234.312 178.49 235.36 178.53" fill="#2A26F8"/>
  <path d="M235.36 120.53H280.48C281.541 120.53 282.559 120.109 283.309 119.358C284.059 118.608 284.48 117.591 284.48 116.53V76C284.441 74.9518 284.007 73.9572 283.265 73.2155C282.523 72.4737 281.529 72.0396 280.48 72H235.36C234.299 72 233.282 72.4214 232.532 73.1716C231.782 73.9217 231.36 74.9391 231.36 76V116.44C231.402 117.487 231.837 118.481 232.578 119.222C233.32 119.963 234.313 120.398 235.36 120.44" fill="#2A26F8"/>
  <path d="M298.28 236.37H343.4C344.461 236.37 345.479 235.948 346.229 235.198C346.979 234.448 347.4 233.431 347.4 232.37V191.89C347.4 190.829 346.979 189.811 346.229 189.061C345.479 188.311 344.461 187.89 343.4 187.89H298.28C297.219 187.89 296.202 188.311 295.452 189.061C294.702 189.811 294.28 190.829 294.28 191.89V232.33C294.32 233.378 294.754 234.372 295.496 235.114C296.237 235.856 297.232 236.29 298.28 236.33" fill="#2A26F8"/>
  </g>
  <defs>
  <clipPath id="clip0_2_12756">
  <rect width="512" height="512" fill="white"/>
  </clipPath>
  </defs>
  </svg>  